<svg xmlns="http://www.w3.org/2000/svg" viewBox="0 0 48 48">
  <path d="M10 12.5h28a4.5 4.5 0 0 1 4.5 4.5v14.5A4.5 4.5 0 0 1 38 36H25.5L16 42v-6h-6A4.5 4.5 0 0 1 5.5 31.5V17A4.5 4.5 0 0 1 10 12.5z" fill="#faf8f2" stroke="#8f8a82" stroke-width="2.4" stroke-linejoin="round"/>
  <circle cx="19" cy="24" r="5.2" fill="none" stroke="#8f8a82" stroke-width="2.2"/>
  <path d="M15.4 29.4c1.2-2.2 2.4-3.2 3.6-3.2s2.4 1 3.6 3.2" fill="none" stroke="#8f8a82" stroke-width="2" stroke-linecap="round"/>
  <path d="M29 20h6.5M29 25h8M29 30h5" stroke="#8f8a82" stroke-width="2.2" stroke-linecap="round"/>
  <path d="M12 18.5c2.8-2 5.2-2 7.2 0" fill="none" stroke="#8f8a82" stroke-width="1.8" stroke-linecap="round"/>
</svg>
