<svg xmlns="http://www.w3.org/2000/svg" viewBox="0 0 48 48">
  <path d="m9 14 10-4 10 4 10-4v24l-10 4-10-4-10 4z" fill="#faf8f2" stroke="#8f8a82" stroke-width="2.4" stroke-linejoin="round"/>
  <path d="M19 10v24M29 14v24" stroke="#8f8a82" stroke-width="1.9" stroke-linecap="round"/>
  <path d="M13.5 32c5.3-7.8 10.2-2.5 15.2-10.4 1.8-2.9 3.4-4.1 5.8-4.4" fill="none" stroke="#8f8a82" stroke-width="2.4" stroke-linecap="round" stroke-dasharray="3.2 3.2"/>
  <path d="M35.5 13.5c-3.2 0-5.8 2.5-5.8 5.7 0 4.4 5.8 9.8 5.8 9.8s5.8-5.4 5.8-9.8c0-3.2-2.6-5.7-5.8-5.7z" fill="#fff" stroke="#8f8a82" stroke-width="2.2" stroke-linejoin="round"/>
  <circle cx="35.5" cy="19.2" r="1.9" fill="#8f8a82"/>
</svg>
